<svg width="33" height="32" viewBox="0 0 33 32" fill="none" xmlns="http://www.w3.org/2000/svg">
<path fill-rule="evenodd" clip-rule="evenodd" d="M27.4701 1.44772C20.24 -0.482574 12.6301 -0.482574 5.40005 1.44772C4.20816 1.76901 3.13025 2.4183 2.28882 3.3215C1.44742 4.22482 0.87619 5.34604 0.640045 6.55771C-0.213348 10.9399 -0.213348 15.4455 0.640045 19.8277C0.87619 21.0394 1.44742 22.1605 2.28882 23.0638C3.13025 23.9671 4.20816 24.6163 5.40005 24.9377C9.77005 26.0977 14.3 26.5677 18.8201 26.3177C19.4059 26.2857 19.9819 26.479 20.4301 26.8576L25.7501 31.3676C25.7977 31.4084 25.8558 31.4347 25.9178 31.4436C25.9798 31.4524 26.043 31.4435 26.1001 31.4177C26.2201 31.3576 26.3001 31.2376 26.3001 31.1176V25.8777C26.3007 25.6947 26.3619 25.5169 26.474 25.3723C26.5861 25.2275 26.743 25.124 26.9201 25.0777C28.2318 24.8412 29.4411 24.213 30.3889 23.2758C31.3367 22.3387 31.9786 21.1366 32.2301 19.8277C33.0801 15.4477 33.0801 10.9377 32.2301 6.5477C31.9922 5.33786 31.4203 4.21884 30.5789 3.31735C29.7377 2.41599 28.6607 1.76828 27.4701 1.44772ZM23.5501 5.77768C24.0501 5.77768 24.4501 6.1777 24.4501 6.6777V9.85764C24.4501 10.3576 24.0501 10.7577 23.5501 10.7577H20.3701C19.8701 10.7577 19.4701 11.1677 19.4701 11.6677V20.2677C19.4701 20.7677 19.0701 21.1677 18.5701 21.1677H14.9401C14.4401 21.1677 14.0301 20.7577 14.0301 20.2577V11.6577C14.0301 11.1577 13.6301 10.7477 13.1301 10.7477H9.96005C9.46005 10.7477 9.06006 10.3476 9.06006 9.84763V6.6777C9.06006 6.1777 9.46005 5.77768 9.96005 5.77768H23.5501Z" fill="white"/>
</svg>
