<svg width="14" height="24" viewBox="0 0 14 24" fill="none" xmlns="http://www.w3.org/2000/svg">
<path d="M12.2303 15.6514C10.9847 16.4667 9.27094 16.7901 8.13903 16.9119L9.08911 17.8772L12.5576 21.4527C13.8259 22.7929 11.7621 24.8876 10.4801 23.5942C9.61188 22.6851 8.33905 21.373 7.01166 20.0047L3.54319 23.5895C2.26126 24.8782 0.197452 22.7648 1.47938 21.448C2.36127 20.5389 3.62047 19.2268 4.94785 17.8726L5.88429 16.9072C4.76602 16.7854 3.02496 16.4808 1.76577 15.6467C0.283823 14.6626 -0.366232 14.0862 0.206544 12.8819C0.542936 12.1978 1.46574 11.6214 2.68857 12.6148C2.68857 12.6148 4.33871 13.9691 7.00257 13.9691C9.66643 13.9691 11.3166 12.6148 11.3166 12.6148C12.5394 11.6261 13.4577 12.1978 13.7986 12.8819C14.3623 14.0862 13.7122 14.6626 12.2303 15.6514ZM1.10207 6.0778C1.10207 2.7179 3.7523 0 6.99802 0C10.2438 0 12.894 2.7179 12.894 6.0778C12.894 9.42363 10.2438 12.1415 6.99802 12.1415C3.7523 12.1415 1.10207 9.42363 1.10207 6.0778ZM4.10233 6.0778C4.10233 7.7226 5.40244 9.0628 6.99802 9.0628C8.59361 9.0628 9.89372 7.7226 9.89372 6.0778C9.89372 4.41894 8.59361 3.07873 6.99802 3.07873C5.40244 3.07873 4.10233 4.41894 4.10233 6.0778Z" fill="white"/>
</svg>
